<?xml version="1.0" encoding="UTF-8" standalone="no"?>
<svg width="599px" height="180px" viewBox="0 0 599 180" version="1.1" xmlns="http://www.w3.org/2000/svg" xmlns:xlink="http://www.w3.org/1999/xlink" xmlns:sketch="http://www.bohemiancoding.com/sketch/ns">
    <!-- Generator: Sketch 3.3 (11970) - http://www.bohemiancoding.com/sketch -->
    <title>Theron Industries</title>
    <desc>Created with Sketch.</desc>
    <defs></defs>
    <g id="Layout" stroke="none" stroke-width="1" fill="none" fill-rule="evenodd" sketch:type="MSPage">
        <g id="Artboard-13" sketch:type="MSArtboardGroup" transform="translate(-167.000000, -92.000000)">
            <g id="Theron-Industries" sketch:type="MSLayerGroup" transform="translate(167.000000, 92.000000)">
                <g id="Industries" transform="translate(0.000000, 127.500000)" fill="#F2F2F2" sketch:type="MSShapeGroup">
                    <path d="M0,51 L598.496241,51 L598.496241,52.5 L0,52.5 L0,51 Z" id="---"></path>
                    <path d="M21.0643797,36 L21.0643797,15.9902344 L22.5035244,15.9902344 L22.5035244,36 L21.0643797,36 Z M72.7854793,36 L72.7854793,15.9902344 L74.2980498,15.9902344 L87.1622415,33.8466797 L87.1622415,15.9902344 L88.572016,15.9902344 L88.572016,36 L87.0741306,36 L74.1952538,18.3925781 L74.1952538,36 L72.7854793,36 Z M138.853971,36 L138.853971,15.9902344 L144.331532,15.9902344 C145.976277,15.9902344 147.483937,16.1855449 148.854558,16.5761719 C150.225179,16.9667988 151.407322,17.5673788 152.401022,18.3779297 C153.394722,19.1884806 154.168132,20.2236265 154.721276,21.4833984 C155.274419,22.7431704 155.550987,24.2421788 155.550987,25.9804688 C155.550987,27.7187587 155.274419,29.2177671 154.721276,30.4775391 C154.168132,31.737311 153.394722,32.7773396 152.401022,33.5976562 C151.407322,34.4179729 150.225179,35.0234355 148.854558,35.4140625 C147.483937,35.8046895 145.976277,36 144.331532,36 L138.853971,36 Z M140.293116,34.6523438 L144.625235,34.6523438 C146.044807,34.6523438 147.332192,34.4765643 148.48743,34.125 C149.642667,33.7734357 150.631457,33.2387731 151.45383,32.5209961 C152.276202,31.8032191 152.907658,30.8974664 153.348214,29.8037109 C153.788771,28.7099555 154.009046,27.4355542 154.009046,25.9804688 C154.009046,24.5156177 153.783876,23.2436577 153.333529,22.1645508 C152.883182,21.0854438 152.241937,20.1870153 151.409774,19.4692383 C150.577612,18.7514613 149.571689,18.2167986 148.391976,17.8652344 C147.212263,17.5136701 145.878375,17.3378906 144.390273,17.3378906 L140.293116,17.3378906 L140.293116,34.6523438 Z M204.775611,28.0166016 L204.775611,15.9902344 L206.214756,15.9902344 L206.214756,27.2695312 C206.214756,28.4121151 206.305313,29.4619093 206.486431,30.4189453 C206.667549,31.3759813 206.993066,32.2060512 207.462993,32.9091797 C207.932921,33.6123082 208.569271,34.1591777 209.372063,34.5498047 C210.174855,34.9404316 211.19791,35.1357422 212.441259,35.1357422 C213.684608,35.1357422 214.707664,34.9404316 215.510456,34.5498047 C216.313248,34.1591777 216.949598,33.6123082 217.419525,32.9091797 C217.889453,32.2060512 218.21497,31.3759813 218.396088,30.4189453 C218.577206,29.4619093 218.667763,28.4121151 218.667763,27.2695312 L218.667763,15.9902344 L220.106908,15.9902344 L220.106908,28.0166016 C220.106908,29.1982481 219.982085,30.3041941 219.732437,31.3344727 C219.482788,32.3647512 219.061818,33.2607384 218.469514,34.0224609 C217.87721,34.7841835 217.091562,35.3847634 216.112547,35.8242188 C215.133532,36.2636741 213.909782,36.4833984 212.441259,36.4833984 C210.972737,36.4833984 209.748987,36.2636741 208.769972,35.8242188 C207.790957,35.3847634 207.005309,34.7841835 206.413005,34.0224609 C205.820701,33.2607384 205.399731,32.3647512 205.150082,31.3344727 C204.900433,30.3041941 204.775611,29.1982481 204.775611,28.0166016 L204.775611,28.0166016 Z M269.067199,33.3632812 L270.12453,32.3378906 C270.809841,33.1582072 271.627306,33.8295872 272.57695,34.3520508 C273.526595,34.8745143 274.681815,35.1357422 276.042646,35.1357422 C276.825858,35.1357422 277.542975,35.0454111 278.19402,34.8647461 C278.845065,34.6840811 279.40799,34.4179705 279.882812,34.0664062 C280.357635,33.714842 280.72476,33.2753933 280.984199,32.7480469 C281.243638,32.2207005 281.373355,31.6054723 281.373355,30.9023438 C281.373355,30.1601525 281.226505,29.530276 280.932801,29.0126953 C280.639096,28.4951146 280.252391,28.0605486 279.772674,27.7089844 C279.292957,27.3574201 278.747164,27.0717784 278.13528,26.8520508 C277.523395,26.6323231 276.909073,26.4296884 276.292293,26.2441406 C275.528662,26.0488271 274.765041,25.8266614 274.00141,25.5776367 C273.237778,25.328612 272.554925,24.9990255 271.952831,24.5888672 C271.350737,24.1787089 270.866132,23.6586946 270.499001,23.0288086 C270.131871,22.3989226 269.948308,21.5810597 269.948308,20.5751953 C269.948308,19.8915981 270.087816,19.2421906 270.366835,18.6269531 C270.645854,18.0117157 271.052139,17.4746117 271.585703,17.015625 C272.119266,16.5566383 272.770301,16.1904311 273.538828,15.9169922 C274.307354,15.6435533 275.186007,15.5068359 276.174812,15.5068359 C277.016765,15.5068359 277.763253,15.5971671 278.414297,15.777832 C279.065342,15.958497 279.63561,16.1831041 280.125117,16.4516602 C280.614625,16.7202162 281.025805,17.0156234 281.35867,17.3378906 C281.691535,17.6601579 281.965655,17.9726547 282.181039,18.2753906 L281.167763,19.1396484 C280.99154,18.8955066 280.761475,18.6391615 280.477561,18.3706055 C280.193647,18.1020494 279.850997,17.8530285 279.449601,17.6235352 C279.048204,17.3940418 278.570942,17.203614 278.017798,17.0522461 C277.464655,16.9008781 276.825857,16.8251953 276.101386,16.8251953 C275.279014,16.8251953 274.574134,16.9350575 273.986725,17.1547852 C273.399316,17.3745128 272.914711,17.6650373 272.532895,18.0263672 C272.151079,18.3876971 271.869616,18.7929665 271.688499,19.2421875 C271.507381,19.6914085 271.416823,20.155271 271.416823,20.6337891 C271.416823,21.3564489 271.583253,21.9521461 271.916118,22.4208984 C272.248983,22.8896508 272.684639,23.2802719 273.223097,23.5927734 C273.761555,23.905275 274.366088,24.1616201 275.036713,24.3618164 C275.707338,24.5620127 276.385296,24.7499991 277.070606,24.9257812 C277.775497,25.1015634 278.47793,25.3261705 279.177925,25.5996094 C279.877921,25.8730482 280.504481,26.2343728 281.057625,26.6835938 C281.610768,27.1328147 282.061108,27.696774 282.408658,28.3754883 C282.756209,29.0542026 282.929981,29.8964793 282.929981,30.9023438 C282.929981,31.761723 282.751314,32.5356411 282.393973,33.2241211 C282.036633,33.9126011 281.552028,34.4985327 280.940143,34.9819336 C280.328259,35.4653344 279.601351,35.8364245 278.759398,36.0952148 C277.917446,36.3540052 277.01187,36.4833984 276.042646,36.4833984 C275.200693,36.4833984 274.41994,36.3930673 273.700364,36.2124023 C272.980788,36.0317374 272.324858,35.7973647 271.732554,35.5092773 C271.14025,35.22119 270.618932,34.8916034 270.168586,34.5205078 C269.718239,34.1494122 269.351114,33.7636739 269.067199,33.3632812 L269.067199,33.3632812 Z M329.584704,17.2792969 L329.584704,15.9902344 L346.604793,15.9902344 L346.604793,17.2792969 L338.821664,17.2792969 L338.821664,36 L337.382519,36 L337.382519,17.2792969 L329.584704,17.2792969 Z M395.051104,36 L395.051104,15.9902344 L401.101386,15.9902344 C402.403476,15.9902344 403.504851,16.1293931 404.405545,16.4077148 C405.306239,16.6860365 406.038042,17.0815404 406.600975,17.5942383 C407.163909,18.1069362 407.570194,18.7075161 407.819843,19.3959961 C408.069491,20.0844761 408.194314,20.8388631 408.194314,21.6591797 C408.194314,22.9580143 407.859006,24.1127879 407.188381,25.1235352 C406.517756,26.1342824 405.448198,26.8105452 403.979676,27.1523438 L408.767035,36 L407.107613,36 L402.45242,27.328125 L396.490249,27.328125 L396.490249,36 L395.051104,36 Z M396.490249,25.9804688 L401.703477,25.9804688 C405.012548,25.9804688 406.667058,24.5400535 406.667058,21.6591797 C406.667058,20.2236256 406.228956,19.1445349 405.352737,18.421875 C404.476519,17.6992151 403.196476,17.3378906 401.51257,17.3378906 L396.490249,17.3378906 L396.490249,25.9804688 Z M458.07977,36 L458.07977,15.9902344 L459.518914,15.9902344 L459.518914,36 L458.07977,36 Z M509.800869,36 L509.800869,15.9902344 L521.828008,15.9902344 L521.828008,17.3378906 L511.240014,17.3378906 L511.240014,24.8964844 L519.522439,24.8964844 L519.522439,26.2441406 L511.240014,26.2441406 L511.240014,34.6523438 L522.621006,34.6523438 L522.621006,36 L509.800869,36 Z M570.479911,33.3632812 L571.537242,32.3378906 C572.222552,33.1582072 573.040017,33.8295872 573.989662,34.3520508 C574.939306,34.8745143 576.094526,35.1357422 577.455357,35.1357422 C578.238569,35.1357422 578.955687,35.0454111 579.606732,34.8647461 C580.257777,34.6840811 580.820702,34.4179705 581.295524,34.0664062 C581.770346,33.714842 582.137471,33.2753933 582.39691,32.7480469 C582.656349,32.2207005 582.786067,31.6054723 582.786067,30.9023438 C582.786067,30.1601525 582.639217,29.530276 582.345512,29.0126953 C582.051808,28.4951146 581.665103,28.0605486 581.185385,27.7089844 C580.705668,27.3574201 580.159875,27.0717784 579.547991,26.8520508 C578.936107,26.6323231 578.321784,26.4296884 577.705005,26.2441406 C576.941373,26.0488271 576.177753,25.8266614 575.414121,25.5776367 C574.65049,25.328612 573.967637,24.9990255 573.365543,24.5888672 C572.763449,24.1787089 572.278843,23.6586946 571.911713,23.0288086 C571.544582,22.3989226 571.36102,21.5810597 571.36102,20.5751953 C571.36102,19.8915981 571.500527,19.2421906 571.779547,18.6269531 C572.058566,18.0117157 572.464851,17.4746117 572.998414,17.015625 C573.531977,16.5566383 574.183012,16.1904311 574.951539,15.9169922 C575.720066,15.6435533 576.598718,15.5068359 577.587523,15.5068359 C578.429476,15.5068359 579.175964,15.5971671 579.827009,15.777832 C580.478054,15.958497 581.048321,16.1831041 581.537829,16.4516602 C582.027336,16.7202162 582.438517,17.0156234 582.771382,17.3378906 C583.104247,17.6601579 583.378367,17.9726547 583.59375,18.2753906 L582.580475,19.1396484 C582.404252,18.8955066 582.174187,18.6391615 581.890273,18.3706055 C581.606358,18.1020494 581.263708,17.8530285 580.862312,17.6235352 C580.460916,17.3940418 579.983653,17.203614 579.43051,17.0522461 C578.877366,16.9008781 578.238569,16.8251953 577.514098,16.8251953 C576.691725,16.8251953 575.986845,16.9350575 575.399436,17.1547852 C574.812027,17.3745128 574.327422,17.6650373 573.945606,18.0263672 C573.56379,18.3876971 573.282328,18.7929665 573.10121,19.2421875 C572.920092,19.6914085 572.829535,20.155271 572.829535,20.6337891 C572.829535,21.3564489 572.995965,21.9521461 573.32883,22.4208984 C573.661695,22.8896508 574.09735,23.2802719 574.635808,23.5927734 C575.174266,23.905275 575.778799,24.1616201 576.449424,24.3618164 C577.12005,24.5620127 577.798007,24.7499991 578.483318,24.9257812 C579.188208,25.1015634 579.890641,25.3261705 580.590637,25.5996094 C581.290632,25.8730482 581.917193,26.2343728 582.470336,26.6835938 C583.023479,27.1328147 583.47382,27.696774 583.82137,28.3754883 C584.16892,29.0542026 584.342693,29.8964793 584.342693,30.9023438 C584.342693,31.761723 584.164025,32.5356411 583.806685,33.2241211 C583.449344,33.9126011 582.964739,34.4985327 582.352855,34.9819336 C581.74097,35.4653344 581.014063,35.8364245 580.17211,36.0952148 C579.330157,36.3540052 578.424582,36.4833984 577.455357,36.4833984 C576.613404,36.4833984 575.832652,36.3930673 575.113076,36.2124023 C574.3935,36.0317374 573.73757,35.7973647 573.145266,35.5092773 C572.552961,35.22119 572.031644,34.8916034 571.581297,34.5205078 C571.13095,34.1494122 570.763825,33.7636739 570.479911,33.3632812 L570.479911,33.3632812 Z" id="INDUSTRIES"></path>
                    <path d="M0,0 L598.496241,0 L598.496241,1.5 L0,1.5 L0,0 Z" id="---"></path>
                </g>
                <g id="Theron" sketch:type="MSShapeGroup">
                    <path d="M416.960969,0.96075 C413.491077,0.96075 409.264859,3.38614604 407.535667,6.35421535 L383.253745,48.0392153 C381.518275,51.0187203 381.525598,55.8580767 383.253745,58.826146 L407.535667,100.512186 C409.271136,103.490651 413.483754,105.904611 416.960969,105.904611 L465.523767,105.904611 C468.99366,105.904611 473.218831,103.479215 474.948024,100.512186 L499.2289,58.826146 C500.963323,55.8476807 500.957046,51.0072847 499.2289,48.0392153 L474.946978,6.35421535 C473.211508,3.37575 468.999936,0.96075 465.521675,0.96075 L416.960969,0.96075 L416.960969,0.96075 Z M441.241845,82.9200074 C424.929063,82.9200074 411.704349,69.746146 411.704349,53.4971361 C411.704349,37.2481262 424.930109,24.0753045 441.241845,24.0753045 C457.553581,24.0753045 470.778295,37.2481262 470.778295,53.4971361 C470.777249,69.746146 457.553581,82.9200074 441.241845,82.9200074 L441.241845,82.9200074 Z" id="O" fill="#F1412F"></path>
                    <path d="M509.783247,102.96075 L509.783247,2.91192187 L534.013745,2.91192187 L572.488839,58.7224687 L572.488839,2.91192187 L598.775258,2.91192187 L598.775258,102.96075 L576.086701,102.96075 L536.069666,45.538875 L536.069666,102.96075 L509.783247,102.96075 Z M297.670935,103.5 L297.670935,3.45117187 L339.156485,3.45117187 C344.590018,3.45117187 349.485019,4.1469657 353.841635,5.53857422 C358.198252,6.93018274 361.93069,9.0053573 365.039062,11.7641602 C368.147435,14.522963 370.558223,17.9531045 372.271499,22.0546875 C373.984775,26.1562705 374.8414,30.8925513 374.8414,36.2636719 C374.8414,42.8555017 373.385138,48.5805421 370.472568,53.4389648 C367.559999,58.2973876 363.68071,62.1913916 358.834586,65.1210937 L380.348332,103.5 L351.785714,103.5 L334.824366,69.4423828 L323.663651,69.4423828 L323.663651,103.5 L297.670935,103.5 Z M323.663651,48.5683594 L336.586584,48.5683594 C340.111037,48.5683594 342.974613,47.4941514 345.177397,45.3457031 C347.38018,43.1972549 348.481555,40.3408381 348.481555,36.7763672 C348.481555,32.9677544 347.42913,29.9648547 345.324248,27.7675781 C343.219366,25.5703015 340.25789,24.4716797 336.439732,24.4716797 L323.663651,24.4716797 L323.663651,48.5683594 Z M208.532072,103.5 L208.532072,3.45117187 L280.709586,3.45117187 L280.709586,26.3759766 L235.112195,26.3759766 L235.112195,41.8300781 L272.559328,41.8300781 L272.559328,63.4365234 L235.112195,63.4365234 L235.112195,80.5751953 L283.866894,80.5751953 L283.866894,103.5 L208.532072,103.5 Z M100.302514,103.5 L100.302514,3.45117187 L126.882636,3.45117187 L126.882636,40.0722656 L163.889215,40.0722656 L163.889215,3.45117187 L190.542763,3.45117187 L190.542763,103.5 L163.889215,103.5 L163.889215,64.3154297 L126.882636,64.3154297 L126.882636,103.5 L100.302514,103.5 Z M0.00293703008,26.6689453 L0.00293703008,3.45117187 L88.2606908,3.45117187 L88.2606908,26.6689453 L57.715578,26.6689453 L57.715578,103.5 L30.8417528,103.5 L30.8417528,26.6689453 L0.00293703008,26.6689453 Z" id="THER" fill="#F2F2F2"></path>
                </g>
            </g>
        </g>
    </g>
</svg>